<?xml version="1.0" encoding="UTF-8"?>
<svg width="409px" height="54px" viewBox="0 0 409 54" version="1.1" xmlns="http://www.w3.org/2000/svg" xmlns:xlink="http://www.w3.org/1999/xlink">
    <!-- Generator: Sketch 61.2 (89653) - https://sketch.com -->
    <title>Group 14</title>
    <desc>Created with Sketch.</desc>
    <g id="Page-1" stroke="none" stroke-width="1" fill="none" fill-rule="evenodd">
        <g id="Desktop-HD" transform="translate(0.000000, -3741.000000)">
            <g id="Group-21" transform="translate(-2.000000, 3341.000000)">
                <g id="Group-14" transform="translate(0.000000, 400.000000)">
                    <g id="Group-25" transform="translate(0.617177, 0.094085)">
                        <path d="M409.898643,43.9035403 C409.898643,43.9035403 368.518364,50.7380542 293.372528,52.8349292 C218.226691,54.9325681 1.36260223,52.8349292 1.36260223,52.8349292 L8.66386682e-14,19.0947208 C8.66386682e-14,19.0947208 19.2722862,16.1086792 22.913513,26.3952069 C22.913513,26.3952069 54.8584572,-6.45507083 91.4383829,27.3905542 C91.4383829,27.3905542 95.2457435,35.3548597 111.632026,25.7313875 C128.018309,16.1086792 129.508178,9.4720125 146.059833,14.7810403 C146.059833,14.7810403 193.398829,-24.7059042 208.296004,25.3998597 C208.296004,25.3998597 226.171394,20.0908319 242.061561,40.9954153 C242.061561,40.9954153 248.185651,53.2734014 263.827379,39.6685403 C279.469108,26.0636792 300.583346,8.47666528 318.826822,37.3455542 C318.826822,37.3455542 337.727212,24.5794431 348.488569,43.9035403 C348.488569,43.9035403 406.257416,28.5615958 409.898643,43.9035403" id="Fill-12" fill="#462B6E" opacity="0.1"></path>
                        <path d="M49.2508943,26.8457987 C49.2508943,26.8457987 56.8387104,18.7283141 70.304617,15.4004844 C79.8285601,13.0468321 89.9119159,14.6706788 94.9059565,15.6084956" id="Fill-15" fill="#FF5252" opacity="0.15" transform="translate(72.078425, 20.515134) rotate(35.000000) translate(-72.078425, -20.515134) "></path>
                        <path d="M146.060138,14.7814222 C146.060138,14.7814222 157.081891,5.36544968 169.794032,1.99258005 C174.708661,0.688597843 178.662333,-0.46908472 186.194216,0.688597843 C189.346904,1.17317932 191.919554,2.92648353 193.527926,3.28795" id="Fill-17" fill="#FF5252" opacity="0.15"></path>
                        <path d="M115.638546,18.4906617 C115.638546,18.4906617 117.820062,33.0950688 104.904467,33.4147306" id="Fill-19" fill="#FF5252" opacity="0.15" transform="translate(110.341055, 25.952696) rotate(25.000000) translate(-110.341055, -25.952696) "></path>
                    </g>
                </g>
            </g>
        </g>
    </g>
</svg>