<?xml version="1.0" encoding="UTF-8"?>
<svg viewBox="0 0 2560 388" version="1.1" xmlns="http://www.w3.org/2000/svg" xmlns:xlink="http://www.w3.org/1999/xlink">
    <!-- Generator: Sketch 61.2 (89653) - https://sketch.com -->
    <title>Group 21</title>
    <desc>Created with Sketch.</desc>
    <g id="Page-1" stroke="none" stroke-width="1" fill="none" fill-rule="evenodd">
        <g id="full-hd" transform="translate(0.000000, -5601.000000)" fill="#EEEEF1">
            <g id="Group-9" transform="translate(-363.000000, 4401.000000)">
                <g id="Group-21" transform="translate(0.000000, 1201.000000)">
                    <path d="M1240.27414,107.871251 C1246.45323,78.4545768 1263.88963,72.333388 1292.58334,89.5076845 C1307.48718,57.6432634 1341.85066,82.4813392 1341.85066,89.5076845 C1343.88956,81.7874467 1359.75432,64.9735282 1382.80255,83.5658878 C1379.56909,62.5551486 1391.30161,50.052789 1418.0001,46.0588089 C1449.41422,-5.67898672 1492.29731,-13.8290373 1546.64939,21.6086573 C1573.66936,10.0392281 1589.91704,16.6881212 1595.39243,41.5553369 C1625.10758,40.4899113 1635.83735,59.6903376 1627.58174,99.1566158 C1619.32613,138.622894 1586.06701,155.98252 1527.80439,151.235493 L1240.74325,151.235493 L1240.27414,107.871251 Z" id="Path-16" stroke="#462B6E" stroke-width="2"></path>
                    <path d="M361.861963,107.262925 C369.908259,98.4489456 378.773695,95.5109525 388.45827,98.4489456 C391.584222,84.7969481 401.071358,77.9709493 416.919679,77.9709493 C427.57216,68.6863384 438.108933,66.9778816 448.529998,72.8455789 C502.347067,43.3799945 546.153099,53.0578728 579.948095,101.879214 C605.746384,104.34197 617.239585,117.478207 614.427697,141.287925 C626.567852,127.682898 640.056556,127.682898 654.89381,141.287925 C671.398727,128.39299 686.567493,129.446155 700.400107,144.447418 C713.595408,128.397134 731.045734,126.518292 752.751082,138.810892 C760.51821,116.971196 775.345362,110.824896 797.232537,120.371992 C823.340299,77.7296471 861.849936,66.6228358 912.761449,87.0515585 C962.752808,70.1392175 998.632843,83.1690788 1020.40156,126.141143 C1034.58497,124.859109 1045.72048,132.789849 1053.8081,149.933361 C1071.49398,134.519488 1088.58065,137.229534 1105.06812,158.063497 C1118.41953,107.631325 1149.64493,96.9905405 1198.74429,126.141143 C1237.16707,117.156181 1260.70833,128.080336 1269.36806,158.913607 C1271.66606,149.269481 1278.12288,137.333433 1288.73851,123.105463 C1309.8543,72.2827872 1342.95505,66.448246 1388.04075,105.60184 C1393.32475,99.3095609 1405.27573,98.2563963 1423.8937,102.442346 C1429.33197,80.8381686 1443.33356,71.9511356 1465.89845,75.7812468 C1470.52493,47.9270823 1494.99901,34 1539.32068,34 C1582.97932,37.9649092 1607.71971,53.8070471 1613.54184,81.5264135 C1665.94286,59.3127909 1696.42892,73.1724741 1705,123.105463 L1705.72586,361.917969 L654.89381,386 L0,303 L111.361689,107.337651 L361.861963,107.262925 Z" id="Path-17-Copy" stroke="#462B6E" stroke-width="2" transform="translate(852.862928, 210.000000) scale(-1, 1) translate(-852.862928, -210.000000) "></path>
                    <path d="M1592.13611,107.262925 C1600.1824,98.4489456 1609.04784,95.5109525 1618.73241,98.4489456 C1621.85837,84.7969481 1631.3455,77.9709493 1647.19382,77.9709493 C1657.8463,68.6863384 1668.38308,66.9778816 1678.80414,72.8455789 C1732.62121,43.3799945 1776.42724,53.0578728 1810.22224,101.879214 C1836.02053,104.34197 1847.51373,117.478207 1844.70184,141.287925 C1856.842,127.682898 1870.3307,127.682898 1885.16795,141.287925 C1901.67287,128.39299 1916.84164,129.446155 1930.67425,144.447418 C1943.86955,128.397134 1961.31988,126.518292 1983.02523,138.810892 C1990.79235,116.971196 2005.61951,110.824896 2027.50668,120.371992 C2053.61444,77.7296471 2092.12408,66.6228358 2143.03559,87.0515585 C2193.02695,70.1392175 2228.90699,83.1690788 2250.6757,126.141143 C2264.85911,124.859109 2275.99463,132.789849 2284.08225,149.933361 C2301.76812,134.519488 2318.85479,137.229534 2335.34226,158.063497 C2348.69368,107.631325 2379.91907,96.9905405 2429.01844,126.141143 C2467.44122,117.156181 2490.98248,128.080336 2499.64221,158.913607 C2501.94021,149.269481 2508.39702,137.333433 2519.01265,123.105463 C2540.12844,72.2827872 2573.22919,66.448246 2618.3149,105.60184 C2623.59889,99.3095609 2635.54988,98.2563963 2654.16784,102.442346 C2659.60612,80.8381686 2673.6077,71.9511356 2696.1726,75.7812468 C2700.79908,47.9270823 2725.27315,34 2769.59482,34 C2813.25346,37.9649092 2837.99385,53.8070471 2843.81598,81.5264135 C2896.21701,59.3127909 2926.70306,73.1724741 2935.27414,123.105463 L2936,361.917969 L1885.16795,386 L1238,358 L1341.63583,107.337651 L1592.13611,107.262925 Z" id="Path-17" stroke="#462B6E" stroke-width="2"></path>
                    <path d="M1245.6111,125.511752 L1242.27414,146.548525 L1213.42969,361 L1553,361 L1601.95467,108.879075 C1604.07555,110.995719 1603.63965,110.266028 1600.64696,106.69 C1597.65427,103.113973 1593.08342,97.8609842 1586.9344,90.9310345 L1450.58586,84 L1385.9001,97.1626482 L1346.46376,101.327586 L1298.90816,107.738437 L1245.6111,125.511752 Z" id="Path-19"></path>
                </g>
            </g>
        </g>
    </g>
</svg>
