<?xml version="1.0" encoding="UTF-8"?>
<svg width="389px" height="43px" viewBox="0 0 389 43" version="1.1" xmlns="http://www.w3.org/2000/svg" xmlns:xlink="http://www.w3.org/1999/xlink">
    <!-- Generator: Sketch 61.2 (89653) - https://sketch.com -->
    <title>Group 24</title>
    <desc>Created with Sketch.</desc>
    <defs>
        <polygon id="path-1" points="0.339857763 0.577859649 578.897151 0.577859649 578.897151 42.6047018 0.339857763 42.6047018"></polygon>
    </defs>
    <g id="Page-1" stroke="none" stroke-width="1" fill="none" fill-rule="evenodd">
        <g id="Desktop-HD" transform="translate(-911.000000, -3341.000000)">
            <g id="Group-21" transform="translate(-2.000000, 3341.000000)">
                <g id="Group-24" transform="translate(723.000000, 0.000000)">
                    <g id="Group-3">
                        <mask id="mask-2" fill="white">
                            <use xlink:href="#path-1"></use>
                        </mask>
                        <g id="Clip-2"></g>
                        <path d="M578.897228,42.6047018 C578.897228,42.6047018 403.915047,36.6714561 230.422268,23.7857895 C197.907548,21.3708541 201.890069,20.0033639 201.086141,18.7970292 C200.161386,17.4093894 197.450311,16.2597929 201.086141,14.3864371 C206.675748,11.5064002 177.884473,5.0838991 197.124143,6.93889074 C212.54159,8.42536297 232.928155,9.73395133 234.642112,17.0445965 C234.642112,17.0445965 319.79168,-24.0339825 350.187656,23.7857895 C350.187656,23.7857895 397.462245,-8.51626316 449.087713,31.7913333 C449.087713,31.7913333 476.389849,19.9934912 479.367889,35.723193 L578.897228,42.6047018 Z" id="Fill-1" fill="#462B6E" opacity="0.12" mask="url(#mask-2)"></path>
                    </g>
                    <path d="M350.187656,23.7859404 C350.187656,23.7859404 375.875449,2.80269474 418.822012,15.4333789 C418.822012,15.4333789 383.330835,14.3063263 350.187656,23.7859404" id="Fill-6" fill="#FF5252" opacity="0.15"></path>
                </g>
            </g>
        </g>
    </g>
</svg>