<?xml version="1.0" encoding="UTF-8"?>
<svg width="280px" height="30px" viewBox="0 0 280 30" version="1.1" xmlns="http://www.w3.org/2000/svg" xmlns:xlink="http://www.w3.org/1999/xlink">
    <!-- Generator: Sketch 61.2 (89653) - https://sketch.com -->
    <title>Group 26</title>
    <desc>Created with Sketch.</desc>
    <g id="Page-1" stroke="none" stroke-width="1" fill="none" fill-rule="evenodd">
        <g id="Desktop-HD" transform="translate(-265.000000, -3896.000000)">
            <g id="Group-21" transform="translate(-2.000000, 3341.000000)">
                <g id="Group-26" transform="translate(267.000000, 555.000000)">
                    <path d="M279.944457,21.957176 C279.944457,21.957176 61.9713043,35.802926 -1.29751282e-13,26.517926 C-1.29751282e-13,26.517926 32.9684783,27.006926 40.9013043,19.676426 C48.8333696,12.346676 61.7232609,5.259926 73.6217391,19.676426 C73.6217391,19.676426 108.077717,-21.861574 149.970435,15.767426 C149.970435,15.767426 154.928261,22.364426 173.767391,20.409926 C192.606522,18.454676 180.956087,10.635926 223.096087,18.699176 C223.096087,18.699176 243.670761,25.051676 255.321196,18.943676 C266.97163,12.834926 266.145326,13.486676 279.944457,21.957176" id="Fill-8" fill="#462B6E" opacity="0.1"></path>
                    <path d="M73.6221196,19.676426 C73.6221196,19.676426 82.5506812,8.74135401 95.9651387,3.49317268 C104.74407,0.0585631692 117.36221,-1.09435174 124.329511,1.299926" id="Fill-10" fill="#FF5252" opacity="0.15"></path>
                </g>
            </g>
        </g>
    </g>
</svg>