<?xml version="1.0" encoding="UTF-8"?>
<svg width="2430px" height="660px" viewBox="0 0 2430 660" version="1.1" xmlns="http://www.w3.org/2000/svg" xmlns:xlink="http://www.w3.org/1999/xlink">
    <!-- Generator: Sketch 63.1 (92452) - https://sketch.com -->
    <title>Path</title>
    <desc>Created with Sketch.</desc>
    <g id="Page-1" stroke="none" stroke-width="1" fill="none" fill-rule="evenodd">
        <polygon id="Path" stroke="#979797" points="2429 78.375 2348.67188 62.328125 2267.97656 78.375 2239.14844 125.132813 2198.5625 136.804688 2174.32031 150.335938 2156.82031 96.046875 2132.34375 170.859375 2040.69531 136.804688 1970.20313 190.585938 1945.64844 236.46875 1908.53125 200.960938 1834.9375 200.960938 1751.3125 170.859375 1703.92188 200.960938 1681.92969 236.46875 1632.21875 222.953125 1607.24219 222.953125 1560.85156 200.960938 1477.85156 136.804688 1380.03125 136.804688 1276.24219 125.132813 1196.97656 190.585938 1147.10938 190.585938 1123.60156 222.953125 1079.07813 200.960938 1056.58594 222.953125 983.390625 212.703125 934.085938 212.703125 867.664063 150.335938 753.375 78.375 654.523438 115.09375 595.28125 136.804688 574.0625 78.375 512.195313 37.8671875 447.335938 37.8671875 357.820313 0.8671875 252.65625 51.3203125 222.484375 78.375 167.351563 125.132813 135.34375 78.375 106.9375 115.09375 47.1796875 136.804688 1 136.804688 1 659 2429 659"></polygon>
    </g>
</svg>