<?xml version="1.0" encoding="UTF-8"?>
<svg width="2448px" height="746px" viewBox="0 0 2448 746" version="1.1" xmlns="http://www.w3.org/2000/svg" xmlns:xlink="http://www.w3.org/1999/xlink">
    <!-- Generator: Sketch 61.2 (89653) - https://sketch.com -->
    <title>Group 21</title>
    <desc>Created with Sketch.</desc>
    <defs>
        <polygon id="path-1" points="0.4461 0.766 759.865 0.766 759.865 56.476 0.4461 56.476"></polygon>
    </defs>
    <g id="Page-1" stroke="none" stroke-width="1" fill="none" fill-rule="evenodd">
        <g id="full-hd" transform="translate(0.000000, -4610.000000)">
            <g id="Group-21" transform="translate(-29.000000, 4610.000000)">
                <g id="Group-24" transform="translate(1717.000000, 0.000000)">
                    <g id="Group-3">
                        <mask id="mask-2" fill="white">
                            <use xlink:href="#path-1"></use>
                        </mask>
                        <g id="Clip-2"></g>
                        <path d="M759.8651,56.476 C759.8651,56.476 530.1821,48.611 302.4541,31.53 C259.77502,28.3288067 265.002509,26.5160871 263.947266,24.9169922 C262.733426,23.0775628 259.174846,21.5536789 263.947266,19.0703933 C271.284229,15.25267 233.492573,6.73912207 258.746717,9.19806447 C278.98378,11.1685044 305.743347,12.9031448 307.9931,22.594 C307.9931,22.594 419.7611,-31.859 459.6591,31.53 C459.6591,31.53 521.7121,-11.289 589.4761,42.142 C589.4761,42.142 625.3131,26.503 629.2221,47.354 L759.8651,56.476 Z" id="Fill-1" fill="#462B6E" opacity="0.12" mask="url(#mask-2)"></path>
                    </g>
                    <path d="M459.6591,31.5302 C459.6591,31.5302 493.3771,3.7152 549.7491,20.4582 C549.7491,20.4582 503.1631,18.9642 459.6591,31.5302" id="Fill-6" fill="#FF5252" opacity="0.15"></path>
                </g>
                <g id="Group-26" transform="translate(723.432700, 705.899565)">
                    <path d="M367.927,29.2762347 C367.927,29.2762347 81.448,47.7372347 -1.70530257e-13,35.3572347 C-1.70530257e-13,35.3572347 43.33,36.0092347 53.756,26.2352347 C64.181,16.4622347 81.122,7.01323466 96.76,26.2352347 C96.76,26.2352347 142.045,-29.1487653 197.104,21.0232347 C197.104,21.0232347 203.62,29.8192347 228.38,27.2132347 C253.14,24.6062347 237.828,14.1812347 293.212,24.9322347 C293.212,24.9322347 320.253,33.4022347 335.565,25.2582347 C350.877,17.1132347 349.791,17.9822347 367.927,29.2762347" id="Fill-8" fill="#462B6E" opacity="0.1"></path>
                    <path d="M96.7605,26.2352347 C96.7605,26.2352347 108.495181,11.6551387 126.125611,4.65756357 C137.663635,0.0780842256 154.247476,-1.45913565 163.4045,1.73323466" id="Fill-10" fill="#FF5252" opacity="0.15"></path>
                </g>
                <g id="Group-14" transform="translate(0.000000, 351.234000)">
                    <g id="Group-25" transform="translate(0.000000, 0.766000)">
                        <path d="M612.848459,65.5686164 C612.848459,65.5686164 550.979896,75.7757572 438.627706,78.9073769 C326.275517,82.0401375 2.03725651,78.9073769 2.03725651,78.9073769 L1.29535375e-13,28.517391 C1.29535375e-13,28.517391 28.8144182,24.0578276 34.2584963,39.4204474 C34.2584963,39.4204474 82.0200836,-9.64045406 136.711533,40.9069685 C136.711533,40.9069685 142.404002,52.8014192 166.903493,38.429053 C191.402983,24.0578276 193.63052,14.1461657 218.377262,22.0750389 C218.377262,22.0750389 289.154835,-36.8975245 311.427928,37.9339262 C311.427928,37.9339262 338.153816,30.005053 361.911554,61.2254192 C361.911554,61.2254192 371.067814,79.562222 394.454106,59.2437713 C417.840398,38.9253206 449.408758,12.6596445 476.68498,55.7744614 C476.68498,55.7744614 504.943368,36.7086586 521.032909,65.5686164 C521.032909,65.5686164 607.404381,42.655884 612.848459,65.5686164" id="Fill-12" fill="#462B6E" opacity="0.1"></path>
                        <path d="M73.6406206,40.1132686 C73.6406206,40.1132686 84.9875079,27.979748 105.115945,22.9974734 C119.352052,19.4736929 134.421157,21.8919148 141.884415,23.2891493" id="Fill-15" fill="#FF5252" opacity="0.15" transform="translate(107.762518, 30.642797) rotate(35.000000) translate(-107.762518, -30.642797) "></path>
                        <path d="M218.377718,22.0756093 C218.377718,22.0756093 234.856583,8.01313766 253.862784,2.97585835 C261.210755,1.02840016 267.121975,-0.700563915 278.38306,1.02840016 C283.096712,1.75210802 286.943138,4.3706151 289.34785,4.9104544" id="Fill-17" fill="#FF5252" opacity="0.15"></path>
                        <path d="M172.896938,27.6093781 C172.896938,27.6093781 176.148684,49.4235496 156.841904,49.9092218" id="Fill-19" fill="#FF5252" opacity="0.15" transform="translate(164.972648, 38.759300) rotate(25.000000) translate(-164.972648, -38.759300) "></path>
                    </g>
                </g>
            </g>
        </g>
    </g>
</svg>