<?xml version="1.0" encoding="UTF-8"?>
<svg width="818px" height="647px" viewBox="0 0 818 647" version="1.1" xmlns="http://www.w3.org/2000/svg" xmlns:xlink="http://www.w3.org/1999/xlink">
    <!-- Generator: Sketch 61.2 (89653) - https://sketch.com -->
    <title>Fill 10 Copy</title>
    <desc>Created with Sketch.</desc>
    <g id="Page-1" stroke="none" stroke-width="1" fill="none" fill-rule="evenodd">
        <path d="M758.100857,493.562726 L666.39151,409.103542 C666.39151,408.543138 666.20597,408.015257 665.873279,407.61747 L573.584943,277.329233 L532.128577,191.880117 C531.934507,191.477326 531.635937,191.164601 531.273388,190.979467 L481.136137,118.526346 L384.715227,0.886301761 C384.363342,0.313388639 383.798193,-0.0168494929 383.198921,-0.00171995401 C382.597517,0.0181757635 382.047296,0.380937348 381.721002,0.973864902 L315.072372,93.1962958 L275.92834,154.149417 C275.789719,154.399597 275.700148,154.669792 275.661761,154.965005 L247.211773,277.951857 L215.757448,327.65674 C215.386368,327.841874 215.083534,328.164607 214.889464,328.579906 L165.781072,426.149953 L123.219284,472.229083 C122.647737,472.229083 122.10818,472.546813 121.766957,473.079697 L0.362763514,618.018679 C-0.0509684205,618.664144 -0.114947586,619.522263 0.192152407,620.245284 C0.4992524,620.965804 1.12411558,621.418631 1.81295793,621.418631 C89.3187904,633.781176 155.352513,640.91624 199.914125,642.823823 C314.102357,647.711965 519.345529,648.169202 815.643642,644.195533 C816.643849,644.195533 817.456385,643.244847 817.456385,642.068999 C817.456385,640.895653 816.643849,639.944968 815.643642,639.944968 C522.627147,644.010022 319.845188,643.621324 207.297765,638.778875 C161.90006,636.825599 94.6121975,629.621996 5.43417868,617.168065 L124.123523,476.479649 L166.851657,430.400518 C167.50851,430.400518 168.118444,429.980215 168.436208,429.304728 L217.762128,331.269345 L249.559808,281.394339 C250.12709,281.106632 250.532291,280.496191 250.630393,279.780675 L279.176349,156.083311 L318.151014,95.6551373 L383.322614,5.89741523 L478.4874,121.48598 C478.677205,121.796204 478.939519,122.043882 479.240221,122.196492 L529.281504,194.599578 L570.554463,279.673424 L570.833839,280.108738 L662.766024,409.969166 L754.477504,494.518415 C754.477504,495.126353 754.701431,495.709273 755.089571,496.112064 L814.442966,643.662648 C815.191522,644.440709 816.336749,644.35815 817,643.477515 C817.663251,642.599382 817.592874,641.255913 816.844317,640.477852 L758.100857,493.562726 Z" id="Fill-10-Copy" fill="#462B6E"></path>
    </g>
</svg>
