<?xml version="1.0" encoding="UTF-8"?>
<svg width="812px" height="640px" viewBox="0 0 812 640" version="1.1" xmlns="http://www.w3.org/2000/svg" xmlns:xlink="http://www.w3.org/1999/xlink">
    <!-- Generator: Sketch 61.2 (89653) - https://sketch.com -->
    <title>Fill 10 Copy 2</title>
    <desc>Created with Sketch.</desc>
    <g id="Page-1" stroke="none" stroke-width="1" fill="none" fill-rule="evenodd">
        <path d="M660.14367,405.638983 L660.174114,405.681987 L660.104931,405.603269 L660.14367,405.638983 Z M660.14367,405.638983 L751.977504,490.30103 L751.977504,490.520135 C751.977504,491.001493 752.153397,491.459444 752.449611,491.766839 L752.553123,491.926381 L810.975148,636.436451 L810.244808,636.446639 C518.823128,640.51182 316.835921,640.123108 204.276272,635.280132 C158.859338,633.32603 91.5575238,626.120933 2.36502354,613.66498 L1.46794344,613.5397 L2.05201083,612.847376 L120.75689,472.141398 L163.633415,425.902238 L163.851657,425.902238 C164.307527,425.902238 164.745817,425.599438 164.989557,425.081718 L214.340524,327.002272 L246.211706,277.011976 L246.333648,276.950131 C246.748892,276.739533 247.058449,276.27301 247.143198,275.669964 L275.689154,151.9726 L275.756165,151.814023 L314.746417,91.3630862 L380.297786,1.08232642 L380.708621,1.58133289 L475.913904,117.226751 C476.056379,117.459618 476.250208,117.642574 476.466504,117.752346 L476.579496,117.809692 L476.65154,117.91393 L526.731359,190.383054 L567.975259,275.405086 L568.241929,275.821558 L660.14367,405.638983 Z" id="Fill-10-Copy-2" stroke="#462B6E"></path>
    </g>
</svg>