<?xml version="1.0" encoding="UTF-8"?>
<svg width="818px" height="682px" viewBox="0 0 818 682" version="1.1" xmlns="http://www.w3.org/2000/svg" xmlns:xlink="http://www.w3.org/1999/xlink">
    <!-- Generator: Sketch 61.2 (89653) - https://sketch.com -->
    <title>Group 33</title>
    <desc>Created with Sketch.</desc>
    <defs>
        <polygon id="path-1" points="0.156088055 0.257271429 13.5924858 0.257271429 13.5924858 11.7713321 0.156088055 11.7713321"></polygon>
        <polygon id="path-3" points="0.336531818 0.034375 36.9841909 0.034375 36.9841909 10.9556651 0.336531818 10.9556651"></polygon>
        <polygon id="path-5" points="0.103100526 0.0365625 33.9838097 0.0365625 33.9838097 6.9073125 0.103100526 6.9073125"></polygon>
        <polygon id="path-7" points="0 0.19230551 11.5391588 0.19230551 11.5391588 46.3912573 0 46.3912573"></polygon>
    </defs>
    <g id="Page-1" stroke="none" stroke-width="1" fill="none" fill-rule="evenodd">
        <g id="Group-33">
            <g id="Group-54" transform="translate(342.000000, 0.000000)">
                <g id="Group-3" transform="translate(56.000000, 71.000000)">
                    <mask id="mask-2" fill="white">
                        <use xlink:href="#path-1"></use>
                    </mask>
                    <g id="Clip-2"></g>
                    <path d="M6.24651044,0.6873 L4.14690892,5.18478571 C4.14690892,5.18478571 -0.471337761,9.81484286 0.228237192,10.6086143 C0.928688805,11.4023857 3.72698861,13.3868143 7.50627135,9.15364286 C9.72159203,6.67207143 11.5064725,5.17484286 12.6040512,4.36035714 C13.329926,3.82178571 14.1154137,2.7405 13.1291708,1.48935714 L12.2823169,0.257271429 L6.24651044,0.6873 Z" id="Fill-1" fill="#132E32" mask="url(#mask-2)"></path>
                </g>
                <polyline id="Fill-140" fill="#462B6E" transform="translate(80.000000, 50.000000) scale(-1, 1) rotate(-180.000000) translate(-80.000000, -50.000000) " points="76.9968295 50.4681618 75 54.3480176 78.3953734 57 85 44.1437725 84.0964068 43 76.9968295 50.4681618"></polyline>
                <path d="M31.5197451,73 L28.2659925,77.197099 C28.2659925,77.197099 22.5820799,80.8275667 23.0245557,81.868374 C23.4661672,82.9100967 25.5679272,85.8064154 30.3426904,82.3626888 C33.1418682,80.3433212 35.2565914,79.2512517 36.5269808,78.6919436 C37.3669935,78.3230383 38.4152808,77.3920787 37.8302103,75.7846401 L37.3713145,74.2367024 L31.5197451,73 Z" id="Fill-6" fill="#132E32"></path>
                <path d="M30.4997766,73.638449 L28.4926254,76.7908527 C28.4926254,76.7908527 22.5784176,79.9833035 23.0239668,80.9731634 C23.469516,81.9630234 25.5908882,84.7184384 30.4082254,81.442411 C33.0431562,79.6507384 35.0093273,78.7087608 36.2491922,78.222972 C37.2205069,77.8416539 37.8883947,76.9475587 38,75.9115575 L36.8185535,72 L30.4997766,73.638449 Z" id="Fill-8" fill="#00131B"></path>
                <path d="M12.1344984,17.7011703 C11.5829056,17.6037014 8.04585098,16.5040748 6.8903048,15.8138176 C1.69937467,12.7125339 -0.557551472,4.51628388 6.21322695,4.07324334 C12.9840054,3.6302028 19.7547838,5.18084469 19.9804764,9.16820954 C20.206169,13.1555744 18.4006281,17.8075001 18.4006281,17.8075001 C18.4006281,17.8075001 15.5659289,18.3045916 12.1344984,17.7011703 Z" id="Fill-10" fill="#462B6E"></path>
                <path d="M19.9810035,9.2766743 C19.9054614,7.89618253 19.0542949,6.81518127 17.7164967,6.00088607 L17.7121047,6 L14,8.12833198 C14,8.12833198 17.8025796,11.8205715 17.7200103,16.3802703 C17.7085911,17.0439341 17.748119,17.5675995 17.8166339,18 C18.2136693,17.9565827 18.4438092,17.9158237 18.4438092,17.9158237 C18.4438092,17.9158237 20.2006027,13.263974 19.9810035,9.2766743" id="Fill-14" fill="#462B6E"></path>
                <path d="M2.46707958,16 C2.46707958,16 8.56083851,14.0183252 9.84373512,12.8359417 C11.1266317,11.6535582 7.73208729,9.29982671 10.6057757,9.10276279 C11.6295272,9.03260804 12.2991992,10.7596762 13.3717008,10.5807422 C15.30973,10.2583456 20,9.97142055 20,9.97142055 C20,9.97142055 11.3404478,2.79671734 7.49175799,4.17616478 C3.64306814,5.55561223 -1.58687373,8.51157103 2.46707958,16" id="Fill-16" fill="#462B6E"></path>
                <path d="M55.0598588,1.36695958 C55.0598588,1.36695958 62.7087036,0.479465651 63.2809239,1.4648584 C63.8548173,2.45025114 64.7809106,4.5116159 62.7647544,5.62327067 C60.7494348,6.73492544 58.4764488,5.7193396 58.8010416,6.15668197 C59.1247978,6.59493928 60.7736956,6.92614835 60.6975669,7.71848829 C60.6206016,8.51082824 55.6747446,7.51720101 54.4274049,6.14844749 C53.1800651,4.77969397 55.0598588,1.36695958 55.0598588,1.36695958" id="Fill-18" fill="#462B6E"></path>
                <path d="M20.9850835,7.54612409 C23.0605508,7.17187116 25.4231896,6.91424589 28.1896091,7.02652177 C39.8287598,7.49825453 39.0908159,9.99269379 46.3919355,13.4810792 C50.318354,15.3575659 56,24.5572251 56,24.5572251 C56,24.5572251 43.4184044,29.8002474 34.4264534,28.9298918 C25.4336322,28.0595361 24.6365136,25.1586408 22.8960798,27.1891805 C22.3606735,27.8140993 19.8061927,30.8788628 15.2326376,36.3834708 C11.3937674,42.7944903 9.47433234,46 9.47433234,46 L5,44.5140739 L10.4033043,34.1927659 L12.6710315,23.4179295 C12.6710315,23.4179295 14.2069643,19.0200225 15.947398,18.1496668 C17.6878318,17.2793112 18.9435548,8.66888286 18.9435548,8.66888286 L20.9850835,7.54612409 Z" id="Fill-20" fill="#462B6E"></path>
                <path d="M5.56871993,43 C5.56871993,43 -0.404868668,49.4029669 0.0218162315,50.5409875 C0.448501131,51.6798619 1.5288673,53.8141842 3.83296576,52.6753098 C6.13791759,51.5372891 6.84877463,48.8335297 6.99128739,49.4029669 C7.13294677,49.972404 6.27957697,51.6798619 6.99128739,52.1067263 C7.70214443,52.5335908 10.2622538,47.4112173 9.97808169,45.418614 C9.69305617,43.4268645 5.56871993,43 5.56871993,43" id="Fill-22" fill="#462B6E"></path>
                <path d="M60.8355482,64 C71.6664271,55.8704448 77.7212444,51.1076726 79,49.7116835 C76.2202527,46.6186074 75.1107998,45.1877145 75.6716413,45.4190048 C75.6716413,45.4190048 61.2828237,56.0312808 61.0971517,54.9535553 C60.8394184,53.4575535 58.3293205,40.9204139 57.9230176,36.5791042 C57.580146,32.919649 56.9844065,22.4475857 52.6127933,22.0218507 C48.2394658,21.5961157 35.6423623,27.5326595 35.6423623,27.5326595 C35.6423623,27.5326595 24.3148241,31.850427 23.1234586,35.9071584 C21.9320932,39.9638899 29.697269,47.1514013 32.0538587,50.7839072 C34.4104483,54.4164131 40.3310898,60.9433946 40.3310898,60.9433946 L50.3472873,60.6146905 L41.4042139,60.1519236 C41.4042139,60.1519236 35.6423623,48.372093 31.5073119,41.4700218 C27.3722615,34.5679506 44.5002634,32.2310138 44.5002634,32.2310138 L52.7919438,56.3673008 L60.8355482,64 Z" id="Fill-26" fill="#462B6E"></path>
                <g id="Group-30" transform="translate(19.000000, 0.000000)">
                    <mask id="mask-4" fill="white">
                        <use xlink:href="#path-3"></use>
                    </mask>
                    <g id="Clip-29"></g>
                    <path d="M7.95853182,4.15558494 C10.1306,3.64701122 24.7767136,-0.358116987 25.9682818,0.0649599359 C27.1590091,0.488918269 36.0263158,1.57212612 36.0263158,1.57212612 L35.0526316,5.21275112 C35.0526316,5.21275112 24.0385946,4.42596154 23.8283673,4.5 C23.61814,4.57315705 11.7073045,10.9556651 11.7073045,10.9556651 L0.336531818,8.54765224 L7.95853182,4.15558494 Z" id="Fill-28" fill="#462B6E" mask="url(#mask-4)"></path>
                </g>
                <path d="M36,53.7729483 L38.0375401,60 L38.0375401,60 C38.0067506,56.8218748 38.1923932,53.8733448 38.8498395,52.4011371 C40.689059,48.2865265 47,38 47,38 L37.048654,49.1983242 L36,53.7729483 Z" id="Fill-41" fill="#000000"></path>
                <path d="M61.3016078,55.3016822 C61.5783868,56.8009597 58.6730208,41.1326103 58.2871583,36.7495139 C58.0152636,33.6567723 57.5724171,25.7476766 55,23 L55.6593854,44.6123727 L60.0007462,57.8019051 L67,71 C67,71 60.1537888,49.0802369 61.3016078,55.3016822" id="Fill-43" fill="#462B6E"></path>
                <g id="Group-47" transform="translate(23.000000, 0.000000)">
                    <mask id="mask-6" fill="white">
                        <use xlink:href="#path-5"></use>
                    </mask>
                    <g id="Clip-46"></g>
                </g>
                <path d="M54.0475645,55.3694684 C53.9585447,55.1077975 51.3045328,47.7767089 51.3045328,46.2927595 C51.3045328,44.8088101 46,37 46,37 L53.5439917,56.6537215 L62,71 C62,71 58.4723722,62.2641519 58.2070583,62.002481 C57.9417444,61.7408101 54.1365843,55.6311392 54.0475645,55.3694684" id="Fill-52" fill="#FFFFFF"></path>
            </g>
            <g id="Group-15" transform="translate(298.000000, 45.000000)">
                <g id="Group-64" transform="translate(32.402764, 53.261364) rotate(7.000000) translate(-32.402764, -53.261364) translate(7.793389, 2.972727)">
                    <path d="M37.3386038,9.90909091 C37.3386038,9.90909091 43.2188551,3.56433284 42.7988371,2.43665784 C42.3788192,1.30813687 41.3153338,-0.80678248 39.0472368,0.321738488 C36.7782999,1.44941349 36.07855,4.12859333 35.938264,3.56433284 C35.798818,3.00007236 36.6388539,1.30813687 35.938264,0.885153004 C35.2385141,0.462169133 32.7184064,5.53797559 32.9981383,7.5124643 C33.2787103,9.48610704 37.3386038,9.90909091 37.3386038,9.90909091" id="Fill-1" fill="#462B6E"></path>
                    <path d="M21.6165564,23.7644762 C22.0165766,22.9795078 19.2613354,19.6790538 19.2613354,19.6790538 C19.2613354,19.6790538 19.5682896,19.2869772 19.8768767,18.5818913 C20.2915915,17.6338973 17.3992005,17.4928801 16.4562957,16.1087925 C13.9867832,12.4879932 6.68355717,13.2485078 7.43706462,18.5068995 C8.19057207,23.7652913 10.5017092,28.6935562 13.6545215,28.2077398 C15.5125746,27.9216298 16.929789,28.0479747 18.1967918,27.3860906 C19.078469,26.9247281 20.9144801,25.1412277 21.6165564,23.7644762" id="Fill-7" fill="#462B6E"></path>
                    <path d="M15.110945,13.8073615 C15.110945,13.8073615 14.4048919,19.1390473 13.5737051,20.4050558 C12.7425182,21.6702433 10.0310093,19.3500487 10.3774062,21.7236094 C10.7735252,24.4370713 13.2297942,22.7293555 13.2579701,23.6365795 C13.2762015,24.2474163 15.144093,27.047085 15.249338,27.9641612 C15.4258512,29.5019265 12.7864393,29.2096443 12.7864393,29.2096443 C12.7864393,29.2096443 4.88229154,23.5011117 5.44249325,20.1094896 C6.00269496,16.7178675 7.72887863,11.9075277 15.110945,13.8073615" id="Fill-13" fill="#462B6E"></path>
                    <path d="M33.5390422,8.34798643 L37.1796514,9.88288866 C37.1796514,9.88288866 32.6614691,18.2049365 32.387379,18.8483597 C32.1124659,19.4909705 25.5153253,30.4864418 23.2633423,31.4580758 C21.4426601,32.2428571 19.2721794,26.3484557 19.2721794,26.3484557 C19.2721794,26.3484557 27.111698,20.2656841 27.9347912,18.9333431 L33.5390422,8.34798643 Z" id="Fill-22" fill="#462B6E"></path>
                    <path d="M3.9375,47.2678945 C3.9375,47.2678945 13.7549268,31.7837011 14.0200905,29.8385889 C14.2860505,27.892643 18.7564077,25.7866192 19.6283424,26.3527278 C20.1586697,26.6962281 24.6043421,30.4830688 24.0732184,36.596874 C23.542891,42.711513 16.3664877,49.0753079 16.3664877,49.0753079 L3.9375,47.2678945 Z" id="Fill-28" fill="#462B6E"></path>
                    <g id="Group-39" transform="translate(0.000000, 54.004545)">
                        <mask id="mask-8" fill="white">
                            <use xlink:href="#path-7"></use>
                        </mask>
                        <g id="Clip-38"></g>
                        <path d="M10.8376182,2.5602669 C11.1534367,2.92235921 11.5957084,23.5346664 11.0256443,25.5081101 C10.4555802,27.4815538 4.38403304,44.6316952 4.38403304,44.6316952 L0.292961149,46.1902489 L3.75298753,21.7954854 L0.207269831,0.652567144 L10.8376182,2.5602669 Z" id="Fill-37" fill="#462B6E" mask="url(#mask-8)"></path>
                    </g>
                    <path d="M1.53355625,57.1357025 C3.04477476,58.5626221 18.9629431,55.8107057 18.9629431,55.8107057 L14.2105379,73.6646362 L18.201292,72.3697265 C18.201292,72.3697265 28.9369853,53.0587894 29.0377332,51.4280241 C29.1384811,49.7972588 24.7463664,45.2431717 4.8281034,46.0186005 C4.8281034,46.0186005 -2.87355993,52.9739896 1.53355625,57.1357025 Z" id="Fill-42" fill="#462B6E"></path>
                    <path d="M43.3187279,36.6636364 C43.3187279,36.6636364 46.5177817,36.5438437 49.1553216,35.0664004 C49.2465573,35.0155081 49.3386223,32.734749 48.6692844,32.4998614 C48.4768601,32.4325269 46.2001158,32.259493 45.5963016,32.5554514 C43.5882878,33.5435455 43.7989592,32.982947 43.7989592,32.982947 C43.7989592,32.982947 45.3964126,31.9510072 44.9891698,31.7419572 C44.581927,31.5336902 43.2316393,32.3651924 42.727355,32.83027 C42.0389405,33.4652496 40.359375,34.7148519 40.359375,34.7148519 L42.9844736,36.4397101" id="Fill-46" fill="#462B6E"></path>
                    <path d="M41.8403211,34.3382928 L41.9906712,34.9356963 L42.2330836,36.2595767 C42.2330836,36.2595767 26.9739279,39.9208374 26.56872,39.7184383 C26.163512,39.5160393 14.8436807,37.4864028 13.8622671,34.9564145 C12.0412626,30.2664234 14.9012202,27.2587733 17.6517717,28.5355066 C20.4015128,29.8122399 27.3024027,34.8094517 27.7076107,35.0118508 C28.1128186,35.2142498 42.2308671,33.335239 42.2308671,33.335239 L41.8403211,34.3382928 Z" id="Fill-50" fill="#462B6E"></path>
                </g>
                <polyline id="Fill-140" fill="#462B6E" transform="translate(25.596646, 76.024415) rotate(-309.000000) translate(-25.596646, -76.024415) " points="22.7809986 76.4900755 20.9190064 80.4500465 24.1157178 83.1712412 30.274285 70.0495089 29.4221109 68.8775883 22.7809986 76.4900755"></polyline>
                <polyline id="Fill-140" fill="#462B6E" transform="translate(8.608771, 100.662501) rotate(-309.000000) translate(-8.608771, -100.662501) " points="5.79312399 101.128162 3.9311318 105.088133 7.12784317 107.809327 13.2864103 94.687595 12.4342363 93.5156744 5.79312399 101.128162"></polyline>
            </g>
            <polygon id="Path-8" fill="#EEEEF1" points="335.518039 104.591409 383.322614 38.8974152 426.083496 90.9916992 406.626056 104.591409 361.625584 96.0259518 311.596933 150.023331 308.30454 153.545148 302.23584 153.545148 317.999023 129"></polygon>
            <path d="M758.100857,528.564446 L666.39151,444.105262 C666.39151,443.544858 666.20597,443.016977 665.873279,442.61919 L573.584943,312.330953 L532.128577,226.881837 C531.934507,226.479046 531.635937,226.166321 531.273388,225.981187 L481.136137,153.528066 L384.715227,35.8880217 C384.363342,35.3151086 383.798193,34.9848705 383.198921,35 C382.597517,35.0198957 382.047296,35.3826573 381.721002,35.9755849 L315.072372,128.198016 L275.92834,189.151137 C275.789719,189.401317 275.700148,189.671512 275.661761,189.966725 L247.211773,312.953577 L215.757448,362.65846 C215.386368,362.843594 215.083534,363.166327 214.889464,363.581626 L165.781072,461.151673 L123.219284,507.230803 C122.647737,507.230803 122.10818,507.548533 121.766957,508.081417 L0.362763514,653.020399 C-0.0509684205,653.665864 -0.114947586,654.523983 0.192152407,655.247004 C0.4992524,655.967524 1.12411558,656.42035 1.81295793,656.42035 C89.3187904,668.782896 155.352513,675.91796 199.914125,677.825543 C314.102357,682.713685 519.345529,683.170922 815.643642,679.197253 C816.643849,679.197253 817.456385,678.246567 817.456385,677.070719 C817.456385,675.897373 816.643849,674.946688 815.643642,674.946688 C522.627147,679.011742 319.845188,678.623044 207.297765,673.780595 C161.90006,671.827319 94.6121975,664.623716 5.43417868,652.169785 L124.123523,511.481368 L166.851657,465.402238 C167.50851,465.402238 168.118444,464.981935 168.436208,464.306448 L217.762128,366.271065 L249.559808,316.396059 C250.12709,316.108352 250.532291,315.497911 250.630393,314.782395 L279.176349,191.085031 L318.151014,130.656857 L383.322614,40.8991352 L478.4874,156.4877 C478.677205,156.797924 478.939519,157.045602 479.240221,157.198212 L529.281504,229.601298 L570.554463,314.675144 L570.833839,315.110458 L662.766024,444.970886 L754.477504,529.520135 C754.477504,530.128073 754.701431,530.710993 755.089571,531.113784 L814.442966,678.664368 C815.191522,679.442429 816.336749,679.35987 817,678.479235 C817.663251,677.601102 817.592874,676.257633 816.844317,675.479572 L758.100857,528.564446 Z" id="Fill-10-Copy" fill="#462B6E"></path>

        </g>
    </g>
</svg>
